<svg xmlns="http://www.w3.org/2000/svg" width="200" height="199.986" viewBox="0 0 200 199.986">
  <g id="Boy-Headshot-Thumbnail" transform="translate(0)">
    <path id="Path_421" data-name="Path 421" d="M100,15.319A99.993,99.993,0,1,1,0,115.312,100,100,0,0,1,100,15.319" transform="translate(0 -15.319)" fill="#3b5691" fill-rule="evenodd"/>
    <g id="Brand_Mark" data-name="Brand Mark" transform="translate(13.137 13.192)">
      <path id="Path_308" data-name="Path 308" d="M140.908,32.7a76.508,76.508,0,1,1-108.2,0,76.586,76.586,0,0,1,108.2,0m7.282-7.281a86.8,86.8,0,1,0,0,122.755,86.812,86.812,0,0,0,0-122.755" transform="translate(0 0)" fill="#1d2a47"/>
      <path id="Path_309" data-name="Path 309" d="M98.474,38.264A53.861,53.861,0,0,1,143.9,81.72a53.107,53.107,0,0,0,.446-6.588,53.845,53.845,0,0,0-107.689,0c0,.964.035,1.919.09,2.869a43.039,43.039,0,0,0,21.4,36.319,53.86,53.86,0,0,1-41.854-46,53.83,53.83,0,1,0,106.747,9.863c0-27.417-24.568-39.923-24.568-39.923M91.55,77.089A11.748,11.748,0,1,1,79.8,65.342,11.75,11.75,0,0,1,91.55,77.089" transform="translate(7.006 9.713)" fill="#1d2a47"/>
      <path id="Path_310" data-name="Path 310" d="M108.457,59.365a53.253,53.253,0,0,1-42.351,62.276c-1.4.265-2.789.425-4.18.578a43,43,0,0,0,45.534-66.955c.367,1.348.73,2.7,1,4.1" transform="translate(28.258 25.211)" fill="#1d2a47"/>
      <path id="Path_311" data-name="Path 311" d="M20.865,68.007a42.821,42.821,0,0,0,7.691,17.122c-.384-1.347-.765-2.694-1.046-4.086A53.255,53.255,0,0,1,69.1,18.253c1.392-.282,2.784-.457,4.172-.629A43,43,0,0,0,20.865,68.007" transform="translate(9.124 7.468)" fill="#1d2a47"/>
    </g>
    <path id="Path_422" data-name="Path 422" d="M253.212,241.372l.166-7.31a30.914,30.914,0,0,1-8.263-16.747c-5.808-4.546-13.015-22.483-8.737-26.379a1.511,1.511,0,0,1,1.81-.171,63.219,63.219,0,0,1-2.793-23.2c-.517-19.193,19-35.136,36.935-32.628a24.994,24.994,0,0,1,2.62-.719c17.714-3.822,37.856,15.428,37.375,33.347a63.25,63.25,0,0,1-2.794,23.2,1.508,1.508,0,0,1,1.808.171c4.278,3.881-2.927,21.831-8.736,26.379a30.95,30.95,0,0,1-8.263,16.747l.167,7.31a14.562,14.562,0,0,0,1.716,4.446,25.61,25.61,0,0,1-45.5.371,12.609,12.609,0,0,0,2.492-4.816" transform="translate(-175.719 -103.828)" fill="#f8f9fa" fill-rule="evenodd"/>
    <path id="Path_423" data-name="Path 423" d="M188.039,590.62a25.617,25.617,0,0,0,22.625-14.378c.5.435,1,.861,1.51,1.271l-.013.046c18.371,14.372,33.712,7.416,44.943,24.869q1.275,1.981,2.371,4.07a100.052,100.052,0,0,1-60.934,27.7H181.428a100.071,100.071,0,0,1-61.039-27.807,49.324,49.324,0,0,1,3.383-5.428c10.618-14.806,24.836-10.638,40.476-23.43l0-.02c.242-.195.485-.395.724-.6l.069.131.03.054.032.054c.215.4.439.793.671,1.174l.033.054.031.054.065.1.033.052.032.054.033.05.032.053a25.623,25.623,0,0,0,22,11.872Z" transform="translate(-89.987 -434.595)" fill="#6c757d" fill-rule="evenodd"/>
    <path id="Path_424" data-name="Path 424" d="M306.337,525.709a24.17,24.17,0,0,0,41.564,0,33.6,33.6,0,0,1-41.564,0" transform="translate(-228.979 -395.7)" fill="#dee2e6" fill-rule="evenodd"/>
    <path id="Path_426" data-name="Path 426" d="M235.432,148.214c-1.127,13.644,2.937,26.822,7.124,39.532.141-4.859-.742-9.7.1-14.481,1.305-7.388.278-8.733.007-15.822-.655-5.888.794-12.874,7.447-13.505a57.781,57.781,0,0,1,17.2.944,20.853,20.853,0,0,0,16.063-1.57,18.5,18.5,0,0,1,17.467,1.1c3.229,3.082,4.047,7.417,3.292,11.716-2.421,13.792,2.1,16.638,2.516,30.992,1.04-7.8,4.422-15.639,5.372-23.491,1.254-10.375,2.77-22.74-3.423-31.728-4.314-6.261-5.645-13.975-11.812-16.066a41.835,41.835,0,0,0-20.9-5.338c-5.755-.953-16.269,2.6-24.369,7.067-14.527,8.013-14.863,15.868-16.084,30.653" transform="translate(-175.837 -86.344)" fill="#6c757d" fill-rule="evenodd"/>
  </g>
</svg>
