<svg xmlns="http://www.w3.org/2000/svg" width="200" height="199.987" viewBox="0 0 200 199.987">
  <g id="Girl-Headshot-Thumbnail" transform="translate(20020.236 17110.717)">
    <path id="Path_417" data-name="Path 417" d="M960.059,0a99.993,99.993,0,1,1-100,99.993A100,100,0,0,1,960.059,0" transform="translate(-20880.295 -17110.717)" fill="#3b5691" fill-rule="evenodd"/>
    <g id="Brand_Mark" data-name="Brand Mark" transform="translate(-20006.902 -17097.383)">
      <path id="Path_308" data-name="Path 308" d="M140.908,32.7a76.508,76.508,0,1,1-108.2,0,76.586,76.586,0,0,1,108.2,0m7.282-7.281a86.8,86.8,0,1,0,0,122.755,86.812,86.812,0,0,0,0-122.755" transform="translate(0 0)" fill="#1d2a47"/>
      <path id="Path_309" data-name="Path 309" d="M98.474,38.264A53.861,53.861,0,0,1,143.9,81.72a53.11,53.11,0,0,0,.446-6.588,53.845,53.845,0,0,0-107.689,0c0,.964.035,1.919.09,2.869a43.039,43.039,0,0,0,21.4,36.319,53.86,53.86,0,0,1-41.854-46,53.83,53.83,0,1,0,106.747,9.863c0-27.417-24.568-39.923-24.568-39.923M91.55,77.089A11.748,11.748,0,1,1,79.8,65.342,11.75,11.75,0,0,1,91.55,77.089" transform="translate(7.006 9.713)" fill="#1d2a47"/>
      <path id="Path_310" data-name="Path 310" d="M108.457,59.365a53.253,53.253,0,0,1-42.351,62.276c-1.4.265-2.789.425-4.18.578a43,43,0,0,0,45.534-66.955c.367,1.348.73,2.7,1,4.1" transform="translate(28.258 25.211)" fill="#1d2a47"/>
      <path id="Path_311" data-name="Path 311" d="M20.865,68.007a42.821,42.821,0,0,0,7.691,17.122c-.384-1.347-.765-2.694-1.046-4.086A53.255,53.255,0,0,1,69.1,18.253c1.392-.283,2.784-.457,4.172-.629A43,43,0,0,0,20.865,68.007" transform="translate(9.124 7.468)" fill="#1d2a47"/>
    </g>
    <path id="Path_418" data-name="Path 418" d="M1118.384,267.422l.165-7.21a58.1,58.1,0,0,1-12.337-24.454q-4.927.642-7.771-6.043a16.026,16.026,0,0,1-1.726-9.989,8.876,8.876,0,0,1,1.233-4.748,4.07,4.07,0,0,1,4.716-1.757q-.98-23.554-.863-25.283,4.169-36.47,39.589-35.268,35.419-1.2,39.591,35.268.116,1.729-.865,25.283a4.073,4.073,0,0,1,4.718,1.757,8.859,8.859,0,0,1,1.232,4.748,16.036,16.036,0,0,1-1.724,9.989q-2.85,6.686-7.771,6.043a58.112,58.112,0,0,1-12.338,24.455l.165,7.208a14.705,14.705,0,0,0,4.483,7.173l1.008.861h0q2.233,6.041,2.232,6.041a33.12,33.12,0,0,1-61.459,0s-.049-1.295,1.438-5.322v-3.451c2.165-1.9,5.524-2.523,6.286-5.3" transform="translate(-21063.32 -17232.986)" fill="#f8f9fa" fill-rule="evenodd"/>
    <path id="Path_419" data-name="Path 419" d="M1022.593,613.12l-.006-.02c.277-.222.555-.452.826-.683l.082.148.034.063.033.063q.369.684.767,1.342l.039.059.035.059.074.12.039.061.037.059.036.057.038.061a29.255,29.255,0,0,0,25.116,13.555h.015v0a29.39,29.39,0,0,0,25.9-16.471c8.611,7.59,20.891,13.4,32.581,15.682,4.041.578,12.221,2.128,14.272,6.29a100.054,100.054,0,0,1-141.291.2c3.3-8.02,29.469-10.9,41.38-20.645" transform="translate(-20971.994 -17573.621)" fill="#6c757d" fill-rule="evenodd"/>
    <path id="Path_420" data-name="Path 420" d="M1178.926,555.25a21.9,21.9,0,0,0,37.655,0,30.438,30.438,0,0,1-37.655,0" transform="translate(-21122.072 -17530.688)" fill="#dee2e6" fill-rule="evenodd"/>
    <path id="Path_425" data-name="Path 425" d="M1037.454,173.615l-1.188-5.276a3.75,3.75,0,0,0-4.629,2.253,18.136,18.136,0,0,0-.4,10.215,22.18,22.18,0,0,0,3.8,7.092,5.222,5.222,0,0,0,4.465,1.5,60.157,60.157,0,0,0,2.651,8.45,56.154,56.154,0,0,0,8.615,14.4c.239,2.565.483,5.04-.377,7.486-.141.4-.277.795-.443,1.177a14.977,14.977,0,0,1-4.8,6.013c-.544.46-1.086.947-1.664,1.419-.167.138-.346.265-.522.4-.2.155-.422.311-.63.463-.679.5-1.436.987-2.2,1.442-2.952,1.77-6.448,3.333-10.132,5.483q-3.375,1.533-5.353,2.331-5.531,2.232-8.371,3.227.234-1.322.438-2.709a23.939,23.939,0,0,1-7.368-18.755c1.088-18.13,10.27-5.581,2.487-23.391a23.917,23.917,0,0,1-.014-19.157c8.781-20.154-1.333-16.887,16.2-51.357a31.436,31.436,0,0,1,2.464-4.087c20.034-27.916,56.863-27.942,76.906-.006a31.421,31.421,0,0,1,2.464,4.087c17.627,34.654,7.559,28.184,16.617,52.381a26.533,26.533,0,0,1,1.6,9.144c.092,15.088-10.058,8.307-2.413,22.381a23.942,23.942,0,0,1-4.5,28.753q.2,1.386.438,2.709-2.837-.993-8.371-3.226-1.978-.8-5.354-2.332c-3.685-2.15-7.179-3.713-10.132-5.483-.763-.455-1.52-.938-2.2-1.442-.207-.153-.432-.308-.63-.463-.175-.135-.353-.262-.521-.4-.578-.472-1.12-.959-1.664-1.419a14.972,14.972,0,0,1-4.8-6.013c-.167-.383-.3-.777-.443-1.177-.861-2.447-.616-4.922-.378-7.486a56.136,56.136,0,0,0,8.615-14.4,60.169,60.169,0,0,0,2.651-8.45,5.222,5.222,0,0,0,4.464-1.5,22.168,22.168,0,0,0,3.8-7.092,18.142,18.142,0,0,0-.4-10.215,3.75,3.75,0,0,0-4.629-2.254l-1.189,5.276c-1.433-37.218-61.535-37.192-62.969.006" transform="translate(-20993.258 -17187.377)" fill="#6c757d" fill-rule="evenodd"/>
  </g>
</svg>
