<svg xmlns="http://www.w3.org/2000/svg" width="31.187" height="18.193" viewBox="0 0 31.187 18.193">
  <path id="Path_269" data-name="Path 269" d="M34.388,12.724H5.8a1.3,1.3,0,0,1-1.3-1.3h0a1.3,1.3,0,0,1,1.3-1.3H34.388a1.3,1.3,0,0,1,1.3,1.3h0A1.3,1.3,0,0,1,34.388,12.724Z" transform="translate(-4.5 -10.125)"/>
  <path id="Path_270" data-name="Path 270" d="M34.388,19.474H5.8a1.3,1.3,0,0,1-1.3-1.3h0a1.3,1.3,0,0,1,1.3-1.3H34.388a1.3,1.3,0,0,1,1.3,1.3h0A1.3,1.3,0,0,1,34.388,19.474Z" transform="translate(-4.5 -9.078)"/>
  <path id="Path_271" data-name="Path 271" d="M34.388,26.224H5.8a1.3,1.3,0,0,1-1.3-1.3h0a1.3,1.3,0,0,1,1.3-1.3H34.388a1.3,1.3,0,0,1,1.3,1.3h0A1.3,1.3,0,0,1,34.388,26.224Z" transform="translate(-4.5 -8.031)"/>
</svg>
