<svg xmlns="http://www.w3.org/2000/svg" width="500.467" height="81.831" viewBox="0 0 500.467 81.831">
  <g id="Group_729" data-name="Group 729" transform="translate(7761 430)">
    <path id="powered_by" data-name="powered by" d="M75.459,12.976l.267-1.686h1.5a.4.4,0,0,0,.41-.277l.211-.42L75.982,2.73h2.428l.956,5.145H79.5L81.781,2.73h2.325L79.5,11.87a2.051,2.051,0,0,1-2.125,1.207C76.721,13.077,76.09,13.033,75.459,12.976ZM0,13.048,1.639,2.73H3.863L3.7,3.763C4.841,2.891,5.2,2.718,5.87,2.718h.846c.856,0,1.272.128,1.577.493.391.465.462,1.206.1,3.516s-.712,3.022-1.268,3.5a2.383,2.383,0,0,1-1.709.509H4.538c-.668,0-1.023-.146-1.8-.917l-.512,3.227ZM3.531,4.824,2.924,8.646a2.393,2.393,0,0,0,1.143.305h.785a1.075,1.075,0,0,0,.755-.174c.22-.2.337-.567.572-2.049s.239-1.861.079-2.049c-.11-.132-.29-.189-.7-.189H4.79A3.094,3.094,0,0,0,3.531,4.824Zm21.54,5.928c-.451,0-.634-.13-.672-.537l-.3-4.33h-.131l-1.677,4.33a.758.758,0,0,1-.84.537H19.984c-.436,0-.61-.1-.657-.537L18.859,2.73H21.1l.064,5.537h.146l1.946-5.028c.157-.435.391-.537.841-.537h1.046c.437,0,.625.1.656.537l.379,5.028h.146l1.8-5.537h2.093l-2.847,7.484a.737.737,0,0,1-.825.537Zm45.6-.014c-.669,0-1.023-.146-1.8-.917l-.144.9H66.5L68.2,0h2.225l-.6,3.763c1.141-.872,1.5-1.045,2.172-1.045h.843c.859,0,1.273.128,1.58.493.389.465.469,1.162.094,3.516s-.712,3.022-1.269,3.5a2.379,2.379,0,0,1-1.708.509ZM69.662,4.824l-.607,3.822a2.4,2.4,0,0,0,1.143.305h.784a1.079,1.079,0,0,0,.756-.174c.22-.2.33-.523.572-2.049s.238-1.861.079-2.049c-.11-.132-.29-.189-.7-.189h-.769A3.092,3.092,0,0,0,69.662,4.824Zm-13.7,5.915c-.843,0-1.271-.145-1.564-.494-.4-.479-.481-1.176-.11-3.516S55,3.7,55.574,3.212a2.38,2.38,0,0,1,1.694-.494h.87c.671,0,1.01.145,1.8.915L60.519,0h2.224l-1.7,10.722H58.815l.165-1.031c-1.14.872-1.518,1.046-2.172,1.046Zm1.123-6.06c-.233.188-.344.523-.587,2.049s-.236,1.846-.064,2.049c.11.131.291.174.7.174h.726a3.152,3.152,0,0,0,1.289-.335l.6-3.805a2.34,2.34,0,0,0-1.112-.321h-.8A1.063,1.063,0,0,0,57.087,4.678ZM11.572,10.723c-.812,0-1.213-.13-1.506-.494-.439-.524-.527-1.249-.17-3.5s.678-2.979,1.286-3.516a2.245,2.245,0,0,1,1.661-.481h2.719c.813,0,1.213.132,1.509.481.437.536.528,1.249.167,3.516s-.678,2.978-1.284,3.5a2.211,2.211,0,0,1-1.662.494Zm1.058-6.1c-.138.129-.252.391-.524,2.106S11.865,8.7,11.962,8.82c.069.116.181.145.559.145H13.9c.376,0,.5-.044.6-.145.135-.117.25-.377.522-2.093s.241-1.977.146-2.106c-.072-.1-.184-.131-.56-.131H13.232C12.855,4.49,12.733,4.519,12.63,4.622Zm34.6,6.1c-.815,0-1.215-.13-1.506-.494-.441-.524-.544-1.148-.171-3.5s.677-2.98,1.284-3.516A2.252,2.252,0,0,1,48.5,2.73h2.7c.814,0,1.229.131,1.507.481.442.523.458,1.147.092,3.443l-.041.262c-.037.232-.109.32-.37.32H47.641c-.185,1.264-.15,1.6-.08,1.7s.312.145.688.145H49.6c.451,0,.574-.042.677-.145.087-.087.15-.305.255-.871h2.049a3.456,3.456,0,0,1-.886,2.193,2.006,2.006,0,0,1-1.5.465Zm1.029-6.2c-.118.1-.229.348-.423,1.467h2.952c.17-1.074.142-1.364.06-1.482-.073-.086-.2-.131-.647-.131H49C48.621,4.373,48.383,4.4,48.263,4.518Zm-9.385,6.2L40.147,2.73h2.225l-.194,1.221c.963-.856,1.446-1.234,2.086-1.234h.855l-.348,2.193H43.74a4.392,4.392,0,0,0-1.766.321L41.1,10.723Zm-6.642,0c-.813,0-1.214-.13-1.506-.494-.439-.524-.543-1.148-.169-3.5s.677-2.98,1.285-3.516a2.245,2.245,0,0,1,1.661-.481h2.7c.814,0,1.229.131,1.509.481.441.523.456,1.147.091,3.443l-.04.262c-.038.232-.11.32-.371.32H32.645c-.185,1.264-.15,1.6-.08,1.7s.311.145.688.145h1.352c.45,0,.574-.042.677-.145.087-.087.15-.305.254-.871h2.049a3.456,3.456,0,0,1-.886,2.193,2,2,0,0,1-1.5.465Zm1.03-6.2c-.118.1-.229.348-.422,1.467h2.951c.171-1.074.144-1.364.061-1.482-.073-.086-.2-.131-.647-.131H34C33.624,4.373,33.386,4.4,33.266,4.518Z" transform="translate(-7664.337 -374.1)" fill="#231f20" stroke="rgba(0,0,0,0)" stroke-width="1"/>
    <path id="Hurricane_Junior_Golf_Tour" data-name="Hurricane Junior Golf Tour" d="M162.258,17.709c-1.836,0-2.857-.225-3.446-.956-.744-.856-.945-1.962-.4-5.534h3.924c-.25,1.886-.24,2.465-.029,2.716.191.228.552.328,1.231.328h.856c1.256,0,1.729-.126,1.963-.328.35-.3.61-.83,1-3.27L169.034.076h4.125L171.5,10.514c-.66,4.152-1.284,5.233-2.367,6.188-.932.8-2.1,1.006-4.385,1.006Zm192.11-.024c-1.736,0-2.5-.252-3.033-.856-.856-.956-1.33-2.565-.473-7.949.859-5.409,1.844-7.019,3-7.949.724-.6,1.57-.855,3.306-.855h5.459c1.735,0,2.5.252,3.034.855.858.93,1.331,2.54.472,7.949-.856,5.385-1.84,6.994-3,7.949-.726.6-1.569.856-3.3.856Zm2.09-14.112c-.257.2-.684.829-1.4,5.307s-.48,5.082-.291,5.308c.154.151.367.227,1.172.227h3.346c.8.025,1.045-.076,1.242-.227.263-.227.691-.856,1.4-5.308.711-4.478.485-5.105.29-5.307-.148-.177-.364-.252-1.168-.252h-3.346C356.9,3.321,356.664,3.4,356.458,3.573ZM313.03,17.685l2.8-17.609h12.6l-.511,3.22h-8.5l-.7,4.4h6.364l-.49,3.094h-6.365l-1.094,6.893Zm-15,0,2.8-17.609h4.1L302.649,14.44h8.378l-.515,3.246Zm-13.639,0c-1.736,0-2.5-.252-3.033-.856-.856-.956-1.33-2.565-.474-7.949.859-5.409,1.844-7.019,3-7.949.724-.6,1.569-.855,3.306-.855h5.459c1.735,0,2.5.252,3.034.855.858.93,1.331,2.54.472,7.949-.856,5.385-1.841,6.994-3,7.949-.725.6-1.569.856-3.3.856Zm2.09-14.112c-.257.2-.685.829-1.4,5.307s-.48,5.082-.291,5.308c.154.151.367.227,1.172.227h3.346c.8.025,1.045-.076,1.243-.227.263-.227.69-.856,1.4-5.308.711-4.478.484-5.105.289-5.307-.148-.177-.363-.252-1.168-.252h-3.346C286.927,3.321,286.691,3.4,286.486,3.573ZM224.412,17.685c-1.737,0-2.5-.252-3.034-.856-.856-.956-1.329-2.565-.473-7.949.859-5.409,1.844-7.019,3-7.949.724-.6,1.57-.855,3.306-.855h5.459c1.735,0,2.5.252,3.034.855.858.93,1.331,2.54.473,7.949-.856,5.385-1.841,6.994-3,7.949-.726.6-1.569.856-3.3.856ZM226.5,3.573c-.256.2-.684.829-1.4,5.307s-.48,5.082-.291,5.308c.154.151.367.227,1.172.227h3.346c.8.025,1.045-.076,1.243-.227.263-.227.69-.856,1.4-5.308.711-4.478.485-5.105.29-5.307-.148-.177-.363-.252-1.168-.252h-3.346C226.943,3.321,226.706,3.4,226.5,3.573Zm170.59,14.112a37.717,37.717,0,0,1,.367-4.378c.192-1.358.065-1.659-.194-1.937-.262-.252-.6-.352-1.655-.352h-3.774l-1.058,6.666h-4.1l2.8-17.609h10.363c1.459,0,2.332.2,2.84.805.614.728.869,1.66.466,4.2-.5,3.169-1.559,4.1-3.652,4.453l-.009.05c1.751.377,2.553.879,2.221,3.446-.257,2.087-.412,3.7-.464,4.654Zm-4.773-9.71h4.377c.855,0,1.124-.1,1.294-.226.293-.252.594-.731.822-2.163.224-1.409.073-1.887-.142-2.114-.132-.126-.371-.2-1.226-.2h-4.377Zm-18.8,9.71c-2.263,0-3.331-.252-3.987-1.031-.778-.957-1.043-1.987-.379-6.164L370.8.076h4.1l-1.7,10.691c-.384,2.415-.242,2.792-.009,3.069.212.251.623.352,2.03.352h1.635c1.359,0,1.8-.1,2.094-.352.351-.3.554-.629.941-3.069L381.6.076h4.126L384.067,10.49c-.66,4.151-1.281,5.207-2.36,6.138-.933.8-2.078,1.057-4.368,1.057Zm-35.275,0,2.277-14.339H335.16l.52-3.27h14.867l-.521,3.27h-5.408l-2.277,14.339Zm-71.685,0c-1.736,0-2.5-.252-3.035-.855-.852-.956-1.327-2.565-.472-7.95.86-5.408,1.846-7.018,3-7.949.726-.6,1.571-.855,3.307-.855h5.408c1.786,0,2.584.2,3.117.805.794.855,1.08,1.911.643,4.98h-3.949c.229-1.76.008-2.112-.187-2.314-.126-.151-.336-.251-1.141-.251h-3.3c-.831,0-1.044.076-1.248.251-.287.227-.762,1.007-1.451,5.332-.683,4.3-.459,5.107-.248,5.359.151.15.342.227,1.172.227h3.371c.776.024,1.019-.077,1.218-.227a4.418,4.418,0,0,0,.991-2.59l.08-.5h-3.95l.478-3.018h7.95l-.347,2.188c-.644,4.05-1.538,5.56-2.667,6.49a4.811,4.811,0,0,1-3.334.881Zm-18.092,0a37.493,37.493,0,0,1,.368-4.378c.192-1.358.063-1.659-.2-1.937-.26-.252-.6-.352-1.655-.352h-3.773l-1.059,6.666h-4.1l2.8-17.609h10.364c1.459,0,2.333.2,2.84.805.614.728.868,1.66.466,4.2-.5,3.169-1.558,4.1-3.651,4.453l-.009.05c1.752.377,2.553.879,2.222,3.446-.257,2.087-.412,3.7-.463,4.654Zm-4.773-9.71h4.378c.854,0,1.123-.1,1.294-.226.291-.252.6-.731.821-2.163.224-1.409.073-1.887-.142-2.114-.132-.126-.371-.2-1.225-.2H244.44Zm-31.684,9.71L214.8.076h4.125l-2.8,17.608Zm-7.173,0a1.453,1.453,0,0,1-1.643-1.057L198.854,5.761H198.6l-1.894,11.924h-3.924l2.8-17.609h3.848c.957,0,1.324.227,1.644,1.057l3.938,10.037h.252L207.028.076h3.924l-2.8,17.609Zm-25.21,0c-2.263,0-3.33-.252-3.987-1.031-.78-.957-1.041-1.987-.379-6.164L176.914.076h4.1l-1.7,10.691c-.384,2.415-.243,2.792-.009,3.069.212.251.621.352,2.031.352h1.635c1.359,0,1.8-.1,2.093-.352.35-.3.553-.629.941-3.069L187.7.076h4.124L190.175,10.49c-.66,4.151-1.28,5.207-2.36,6.138-.932.8-2.078,1.057-4.368,1.057Zm-43.351,0L139.07.076h13.206l-.516,3.244h-9.107l-.6,3.773h7.094l-.492,3.094h-7.1l-.675,4.252h9.106l-.515,3.245Zm-7.073,0a1.454,1.454,0,0,1-1.644-1.057L123.219,5.761h-.252l-1.894,11.924H117.15l2.8-17.609h3.847c.957,0,1.324.227,1.644,1.057l3.939,10.037h.252L131.393.076h3.924l-2.8,17.609Zm-18.62,0-.639-4.377H103.88l-2,4.377h-4.1l8.084-16.526C106.339.2,106.546,0,107.478,0h3.395c.906,0,1.072.226,1.25,1.158l2.834,16.526Zm-5.308-7.446h4.251L108.6,3.7h-.329ZM86.3,17.685c-1.737,0-2.5-.252-3.034-.855-.855-.956-1.33-2.565-.473-7.95.859-5.408,1.845-7.018,3-7.949.724-.6,1.57-.855,3.306-.855h5.383c1.76,0,2.5.252,3.034.855.791.881,1.007,2.214.533,5.509H94.125c.272-2.189.121-2.666-.049-2.867-.147-.177-.363-.252-1.168-.252H89.64c-.8,0-1.044.075-1.248.252-.258.2-.686.828-1.4,5.307s-.48,5.082-.289,5.308c.151.151.365.227,1.171.227h3.269c.8.025,1.044-.076,1.242-.227.235-.2.529-.629.992-3.069h3.949c-.664,3.548-1.271,4.83-2.341,5.711-.726.6-1.545.855-3.305.855Zm-12.379,0L76.721.076h4.125l-2.8,17.608Zm-7.7,0a37.7,37.7,0,0,1,.366-4.378c.193-1.358.065-1.659-.194-1.937-.262-.252-.6-.352-1.655-.352H60.966l-1.058,6.666h-4.1L58.605.076H68.968c1.459,0,2.333.2,2.84.805.614.728.87,1.66.466,4.2-.5,3.169-1.559,4.1-3.652,4.453l-.009.05c1.751.377,2.553.879,2.221,3.446-.257,2.087-.412,3.7-.463,4.654Zm-4.774-9.71h4.377c.856,0,1.124-.1,1.295-.226.293-.252.594-.731.821-2.163.224-1.409.073-1.887-.141-2.114-.132-.126-.371-.2-1.226-.2H62.2Zm-13.242,9.71a37.713,37.713,0,0,1,.367-4.378c.192-1.358.065-1.659-.194-1.937-.262-.252-.6-.352-1.655-.352H42.951l-1.059,6.666h-4.1L40.59.076H50.953c1.459,0,2.332.2,2.84.805.614.728.869,1.66.466,4.2-.5,3.169-1.559,4.1-3.652,4.453l-.009.05c1.751.377,2.553.879,2.221,3.446-.257,2.087-.412,3.7-.463,4.654Zm-4.773-9.71H47.81c.855,0,1.124-.1,1.294-.226.293-.252.594-.731.822-2.163.224-1.409.073-1.887-.142-2.114-.132-.126-.371-.2-1.226-.2H44.182Zm-18.8,9.71c-2.263,0-3.331-.252-3.987-1.031-.778-.957-1.043-1.987-.379-6.164L21.92.076h4.1l-1.7,10.691c-.384,2.415-.241,2.792-.009,3.069.212.251.623.352,2.03.352h1.635c1.359,0,1.8-.1,2.094-.352.351-.3.554-.629.941-3.069L32.712.076h4.125L35.183,10.49c-.66,4.151-1.281,5.207-2.36,6.138-.933.8-2.078,1.057-4.368,1.057Zm-13.387,0,1.171-7.371H5.27L4.1,17.685H0L2.8.076H6.9l-1.1,6.942h7.146l1.1-6.942h4.125l-2.8,17.608Z" transform="translate(-7664.338 -410.467)" fill="#231f20" stroke="rgba(0,0,0,0)" stroke-width="1"/>
    <g id="Brand_Mark" data-name="Brand Mark" transform="translate(-7761 -430)">
      <path id="Path_367" data-name="Path 367" d="M66.416,15.415a36.063,36.063,0,1,1-51,0,36.1,36.1,0,0,1,51,0m3.431-3.431a40.915,40.915,0,1,0,0,57.863,40.916,40.916,0,0,0,0-57.863" transform="translate(0 0)" fill="#00a4ff"/>
      <path id="Path_368" data-name="Path 368" d="M55.713,30.93A25.386,25.386,0,0,1,77.124,51.414a25.064,25.064,0,0,0,.21-3.106,25.379,25.379,0,0,0-50.757,0c0,.455.017.905.043,1.353A20.288,20.288,0,0,0,36.706,66.78,25.389,25.389,0,0,1,16.978,45.1a25.372,25.372,0,1,0,50.314,4.649c0-12.924-11.579-18.818-11.579-18.818m-3.264,18.3a5.537,5.537,0,1,1-5.537-5.537,5.538,5.538,0,0,1,5.537,5.537" transform="translate(-5.996 -8.315)" fill="#1d2a47"/>
      <path id="Path_369" data-name="Path 369" d="M88.625,61.45A25.1,25.1,0,0,1,68.664,90.8c-.659.126-1.315.2-1.97.273a20.268,20.268,0,0,0,21.462-31.56c.173.636.344,1.273.47,1.933" transform="translate(-24.187 -21.583)" fill="#00a4ff"/>
      <path id="Path_370" data-name="Path 370" d="M21.944,41.969a20.2,20.2,0,0,0,3.625,8.071c-.181-.635-.36-1.27-.493-1.926a25.1,25.1,0,0,1,19.6-29.6c.656-.133,1.312-.215,1.966-.3a20.268,20.268,0,0,0-24.7,23.749" transform="translate(-7.81 -6.393)" fill="#00a4ff"/>
    </g>
    <path id="Junior_Golf_Hub" data-name="Junior Golf Hub" d="M127.124,6.223V.211H129V5.819a2.654,2.654,0,1,0,5.269,0V.211h1.875V6.223a4.512,4.512,0,0,1-9.018,0ZM64.258,5.285A5.314,5.314,0,0,1,69.705,0a5.44,5.44,0,0,1,4.331,2.085L72.485,3.249a3.3,3.3,0,0,0-2.78-1.47,3.507,3.507,0,0,0,0,7.014,3.414,3.414,0,0,0,3.443-2.748H69.689V4.268h5.463V5.609a5.46,5.46,0,0,1-10.894-.324Zm-56.91.937V.211H9.223V5.819a2.654,2.654,0,1,0,5.269,0V.211h1.875V6.223a4.328,4.328,0,0,1-4.509,4.348A4.328,4.328,0,0,1,7.348,6.223ZM0,8.792C1.842,8.631,2.553,7.5,2.553,5.851V1.989H.921V.211H4.428v5.8A4.31,4.31,0,0,1,0,10.571ZM76.879,5.285a5.45,5.45,0,0,1,10.894,0,5.45,5.45,0,0,1-10.894,0Zm1.972,0a3.475,3.475,0,1,0,3.475-3.507A3.529,3.529,0,0,0,78.852,5.285Zm-43.624,0a5.449,5.449,0,0,1,10.893,0,5.449,5.449,0,0,1-10.893,0Zm1.972,0a3.475,3.475,0,1,0,3.475-3.507A3.529,3.529,0,0,0,37.2,5.285ZM21.246,4.138v6.223H19.371V0l6.546,6.433V.211h1.875V10.57Zm100.976,6.223V6.045h-4.639v4.316h-1.875V6.045H114.5V4.267h1.212V.211h1.875V4.267h4.639V.211H124.1v10.15Zm-21.45,0V6.045H99.56V4.267h1.212V.211h7.79V1.988h-5.915V4.267h4.121V6.045h-4.121v4.316Zm38.735,0V6.045h-1.212V4.267h1.212V.211h5.414a2.675,2.675,0,0,1,2.925,2.715,2.131,2.131,0,0,1-1.245,2.02,2.482,2.482,0,0,1,1.811,2.473,2.891,2.891,0,0,1-3.12,2.942Zm1.875-1.778h3.7a1.336,1.336,0,0,0,1.455-1.261,1.338,1.338,0,0,0-1.455-1.276h-3.7Zm0-4.315h3.329a1.145,1.145,0,1,0,0-2.278h-3.329ZM90.23,10.36V.211H92.1V8.582H96.1V6.158h1.875v4.2Zm-35.185,0-2.117-3.2h-2.3v3.2H48.757V7.16H47.545V5.382h1.213V.211H53.59a3.383,3.383,0,0,1,3.652,3.474A3.229,3.229,0,0,1,54.867,6.74L57.4,10.36ZM50.633,5.382h2.812a1.689,1.689,0,0,0,1.923-1.7,1.689,1.689,0,0,0-1.923-1.7H50.633ZM30.894,10.36V.211h1.875V10.36Z" transform="translate(-7533.988 -373.95)" stroke="rgba(0,0,0,0)" stroke-width="1"/>
    <g id="Junior_Golf_Hub_Icon_" data-name="Junior Golf Hub (Icon)" transform="translate(-7571.702 -383.547)">
      <path id="Path_383" data-name="Path 383" d="M312.082,72.884c-8.409,0-15.074,6.4-15.074,14.627s6.665,14.627,15.074,14.627,15.075-6.4,15.075-14.627-6.665-14.627-15.075-14.627" transform="translate(-297.008 -72.884)" fill="#6dad44"/>
      <path id="Path_390" data-name="Path 390" d="M7.868,14.188a.569.569,0,0,1-.094-.794C9.42,11.29,16.4,2.438,17.969.466a.522.522,0,0,1,.723-.1A8.779,8.779,0,0,1,13.72,16.129q-.173.007-.345.007A8.729,8.729,0,0,1,7.868,14.188ZM1.16,13.952,11.526.85A2.24,2.24,0,0,1,13.283,0h3.4L6.1,13.389a1.487,1.487,0,0,1-1.164.563ZM0,7.65,5.393.85A2.241,2.241,0,0,1,7.15,0h3.406L4.934,7.086A1.484,1.484,0,0,1,3.77,7.65Z" transform="translate(3.435 6.977)" fill="#fff" stroke="rgba(0,0,0,0)" stroke-width="1"/>
    </g>
  </g>
</svg>
