<svg xmlns="http://www.w3.org/2000/svg" width="516" height="516" viewBox="0 0 516 516">
  <g id="Brand_Mark" data-name="Brand Mark" transform="translate(0)">
    <path id="Path_308" data-name="Path 308" d="M418.793,97.207c88.665,88.661,88.665,232.922,0,321.587s-232.922,88.661-321.587,0-88.661-232.927,0-321.587,232.927-88.665,321.587,0m21.641-21.641C339.68-25.188,176.322-25.188,75.568,75.566s-100.758,264.112,0,364.866,264.112,100.758,364.866,0,100.754-264.112,0-364.866" transform="translate(0 0)" fill="#00a4ff"/>
    <path id="Path_309" data-name="Path 309" d="M262.4,71.738A160.084,160.084,0,0,1,397.415,200.9a157.865,157.865,0,0,0,1.324-19.581,160.032,160.032,0,0,0-320.064,0c0,2.865.1,5.7.268,8.527a127.928,127.928,0,0,0,63.6,107.952A160.085,160.085,0,0,1,18.153,161.087,159.99,159.99,0,1,0,335.417,190.4c0-81.493-73.018-118.664-73.018-118.664m-20.581,115.4A34.916,34.916,0,1,1,206.9,152.223a34.923,34.923,0,0,1,34.916,34.916" transform="translate(51.1 70.864)" fill="#1d2a47"/>
    <path id="Path_310" data-name="Path 310" d="M200.22,67.452a158.284,158.284,0,0,1-125.871,185.1c-4.151.788-8.289,1.264-12.422,1.718A127.8,127.8,0,0,0,197.26,55.264c1.091,4.008,2.168,8.029,2.961,12.188" transform="translate(206.112 183.932)" fill="#00a4ff"/>
    <path id="Path_311" data-name="Path 311" d="M22.58,169.849a127.281,127.281,0,0,0,22.858,50.892c-1.143-4-2.272-8.007-3.108-12.145A158.291,158.291,0,0,1,165.941,21.964c4.138-.84,8.276-1.359,12.4-1.87A127.8,127.8,0,0,0,22.58,169.849" transform="translate(66.549 54.484)" fill="#00a4ff"/>
  </g>
</svg>
