<svg xmlns="http://www.w3.org/2000/svg" width="380" height="38.618" viewBox="0 0 380 38.618"><defs><style>.a{fill:#fff;}.b{fill:#e52d3b;}</style></defs><g transform="translate(29.953)"><path class="a" d="M537.55,708.068a9.91,9.91,0,0,0,3.982-8.4,10.578,10.578,0,0,0-2.7-7.348,10.435,10.435,0,0,0-8.114-3.3H519.606v9.016h11.107q1.954,0,1.954,2.893t-1.954,2.892h-17.7v-2.95H504V727.64H531.39a10.391,10.391,0,0,0,10.895-10.648A9.776,9.776,0,0,0,537.55,708.068Zm-6.231,10.556H513.014v-5.785H531.32q1.947,0,1.949,2.892T531.32,718.625Z" transform="translate(-503.998 -689.022)"/></g><path class="a" d="M515.063,698.038h-17.43v29.6h-9.016v-29.6H476.138l-3.8-9.016h42.725Z" transform="translate(-472.338 -689.022)"/><path class="b" d="M486.015,701.6v19.865L477.641,701.6Z" transform="translate(-472.624 -689.7)"/><g transform="translate(77.183 0.899)"><path class="a" d="M572.106,695.711h-6.079v31.071H560V695.711h-6.078v-5.3h18.185Z" transform="translate(-553.921 -689.996)"/><path class="a" d="M585.144,689.972h.415c5.508,0,9.145,2.183,9.145,7.69v21.823c0,5.507-3.637,7.69-9.145,7.69h-.415c-5.508,0-9.145-2.182-9.145-7.69V697.662C576,692.1,579.636,689.972,585.144,689.972Zm.208,31.9c1.974,0,3.324-.727,3.324-3.326V698.6c0-2.6-1.35-3.325-3.324-3.325s-3.326.728-3.326,3.325v19.952C582.026,721.147,583.377,721.874,585.352,721.874Z" transform="translate(-555.112 -689.972)"/><path class="a" d="M617.292,698.1v20.99c0,5.508-3.637,7.69-9.145,7.69h-9.3V690.411h9.3C613.655,690.411,617.292,692.594,617.292,698.1Zm-9.353-2.391h-3.065v25.772h3.065c1.974,0,3.325-.727,3.325-3.326V699.036C611.264,696.438,609.913,695.711,607.939,695.711Z" transform="translate(-556.344 -689.996)"/><path class="a" d="M634.583,718.677h-6.65l-1.3,8.1h-5.819l6.755-36.371h7.586l6.859,36.371h-6.131Zm-.78-4.988-2.546-16.16-2.546,16.16Z" transform="translate(-557.529 -689.996)"/><path class="a" d="M654.159,726.782h-6.026V713.844l-7.326-23.433h6.339L651.2,707.3l4.053-16.886h6.234l-7.326,23.433Z" transform="translate(-558.607 -689.996)"/><path class="a" d="M672.322,695.607a13.526,13.526,0,0,1-3.377,8.417l-2.235-1.143a14.457,14.457,0,0,0,2.443-5.715H666.4v-6.755h5.923Z" transform="translate(-559.987 -689.996)"/><path class="a" d="M687.789,703.377v-5.092c0-2.286-1.3-3.117-3.065-3.117s-3.065.832-3.065,3.117v2.494c0,1.87.623,2.7,2.338,3.69l4.26,2.39c3.482,1.975,5.56,3.586,5.56,7.482v5.248c0,5.612-3.482,7.586-8.989,7.586h-.1c-5.508,0-8.99-1.922-8.99-7.586v-6.339h5.924v5.508a3.119,3.119,0,1,0,6.235,0V715.9c0-1.87-.571-2.806-2.39-3.793l-4.209-2.39c-3.534-2.026-5.56-3.69-5.56-7.482v-4.779c0-5.4,3.949-7.482,8.938-7.482h.1c4.988,0,8.937,2.078,8.937,7.482v5.922Z" transform="translate(-560.49 -689.972)"/><path class="a" d="M722.432,707.869c3.169.52,4.26,2.962,4.26,5.768v5.974c0,4.573-3.533,7.17-9.041,7.17h-9.4V690.411h9.509c5.507,0,8.729,2.6,8.729,7.17v4.572C726.485,704.751,725.341,707.506,722.432,707.869Zm-8.158-2.442h3.377a2.522,2.522,0,0,0,2.806-2.8v-4.209a2.523,2.523,0,0,0-2.806-2.806h-3.377Zm3.586,5.092h-3.586v11.067h3.586a2.521,2.521,0,0,0,2.805-2.805v-5.456A2.522,2.522,0,0,0,717.86,710.519Z" transform="translate(-562.244 -689.996)"/><path class="a" d="M749.549,719.508c0,5.611-3.533,7.69-9.041,7.69H740.3c-5.508,0-9.042-2.026-9.042-7.69v-29.1h6.027v28.162c0,2.6,1.143,3.326,3.117,3.326s3.118-.728,3.118-3.326V690.411h6.026Z" transform="translate(-563.485 -689.996)"/><path class="a" d="M766.161,703.377v-5.092c0-2.286-1.3-3.117-3.065-3.117s-3.065.832-3.065,3.117v2.494c0,1.87.624,2.7,2.338,3.69l4.261,2.39c3.481,1.975,5.559,3.586,5.559,7.482v5.248c0,5.612-3.482,7.586-8.988,7.586h-.1c-5.508,0-8.988-1.922-8.988-7.586v-6.339h5.923v5.508a3.119,3.119,0,1,0,6.235,0V715.9c0-1.87-.571-2.806-2.39-3.793l-4.209-2.39c-3.533-2.026-5.559-3.69-5.559-7.482v-4.779c0-5.4,3.949-7.482,8.937-7.482h.1c4.988,0,8.936,2.078,8.936,7.482v5.922Z" transform="translate(-564.717 -689.972)"/><path class="a" d="M776.954,726.782V690.411h6.027v36.371Z" transform="translate(-565.95 -689.996)"/><path class="a" d="M787.938,726.782V690.411h6.027l7.638,22.5v-22.5h5.508v36.371H801.4l-7.95-23.64v23.64Z" transform="translate(-566.542 -689.996)"/><path class="a" d="M811.5,726.782V690.411h15.951v5.3h-9.924v9.976h8.314v5.3h-8.314v10.5h10.08v5.3Z" transform="translate(-567.813 -689.996)"/><path class="a" d="M843.985,703.377v-5.092c0-2.286-1.3-3.117-3.065-3.117s-3.065.832-3.065,3.117v2.494c0,1.87.622,2.7,2.338,3.69l4.26,2.39c3.482,1.975,5.56,3.586,5.56,7.482v5.248c0,5.612-3.482,7.586-8.989,7.586h-.1c-5.508,0-8.99-1.922-8.99-7.586v-6.339h5.924v5.508a3.119,3.119,0,1,0,6.234,0V715.9c0-1.87-.571-2.806-2.391-3.793l-4.208-2.39c-3.533-2.026-5.56-3.69-5.56-7.482v-4.779c0-5.4,3.949-7.482,8.938-7.482h.1c4.988,0,8.937,2.078,8.937,7.482v5.922Z" transform="translate(-568.914 -689.972)"/><path class="a" d="M866.942,703.377v-5.092c0-2.286-1.3-3.117-3.065-3.117s-3.065.832-3.065,3.117v2.494c0,1.87.623,2.7,2.338,3.69l4.261,2.39c3.481,1.975,5.559,3.586,5.559,7.482v5.248c0,5.612-3.481,7.586-8.989,7.586h-.1c-5.508,0-8.989-1.922-8.989-7.586v-6.339h5.923v5.508a3.119,3.119,0,1,0,6.235,0V715.9c0-1.87-.571-2.806-2.39-3.793l-4.209-2.39c-3.533-2.026-5.559-3.69-5.559-7.482v-4.779c0-5.4,3.949-7.482,8.937-7.482h.1c4.988,0,8.937,2.078,8.937,7.482v5.922Z" transform="translate(-570.153 -689.972)"/></g></svg>